<?xml version="1.0" encoding="UTF-8" standalone="no"?>
<svg width="150px" height="150px" viewBox="0 0 1122 1110" version="1.1" xmlns="http://www.w3.org/2000/svg" xmlns:xlink="http://www.w3.org/1999/xlink" xml:space="preserve" xmlns:serif="http://www.serif.com/" style="fill-rule:evenodd;clip-rule:evenodd;stroke-linecap:round;stroke-linejoin:round;stroke-miterlimit:1.5;">
    <g transform="matrix(1,0,0,1,-536.035,-829.014)">
        <g transform="matrix(0.92437,0,0,1.47368,-72.5178,-531.327)">
            <rect x="658.343" y="923.089" width="1212.89" height="64.552" style="fill:rgb(162,129,86);"/>
        </g>
        <g transform="matrix(1.03957,0,0,1,-38.6641,-1.05414)">
            <g transform="matrix(0.16809,0,0,1.47368,520.392,-530.273)">
                <rect x="658.343" y="923.089" width="1212.89" height="64.552" style="fill:rgb(255,170,87);"/>
            </g>
            <g transform="matrix(0.16809,0,0,1.47368,881.985,-530.273)">
                <rect x="658.343" y="923.089" width="1212.89" height="64.552" style="fill:rgb(255,170,87);"/>
            </g>
            <g transform="matrix(0.16809,0,0,1.47368,1241.55,-530.273)">
                <rect x="658.343" y="923.089" width="1212.89" height="64.552" style="fill:rgb(255,170,87);"/>
            </g>
        </g>
        <g transform="matrix(0.992917,0,0,1,7.63565,0)">
            <rect x="614.176" y="923.089" width="968.275" height="1015.84" style="fill:rgb(255,170,87);"/>
        </g>
        <g transform="matrix(1,0,0,1,0.0703458,-20.7268)">
            <g transform="matrix(0.577891,0,0,0.577891,476.455,534.163)">
                <g transform="matrix(1.23501,0,0,1.23501,759.551,966.154)">
                    <path d="M295.624,166.8C284.78,166.813 275.861,175.732 275.848,186.576C275.848,190.416 279.008,193.576 282.848,193.576C286.688,193.576 289.848,190.416 289.848,186.576C289.847,186.525 289.846,186.475 289.846,186.424C289.846,183.255 292.453,180.648 295.622,180.648C298.791,180.648 301.398,183.255 301.398,186.424C301.398,186.475 301.397,186.525 301.396,186.576C301.396,190.416 304.556,193.576 308.396,193.576C312.236,193.576 315.396,190.416 315.396,186.576C315.383,175.734 306.466,166.815 295.624,166.8Z" style="fill:white;fill-rule:nonzero;"/>
                </g>
                <g transform="matrix(1.23501,0,0,1.23501,759.551,966.154)">
                    <path d="M216.376,166.8C205.534,166.815 196.617,175.734 196.604,186.576C196.604,190.416 199.764,193.576 203.604,193.576C207.444,193.576 210.604,190.416 210.604,186.576C210.603,186.525 210.602,186.475 210.602,186.424C210.602,183.255 213.209,180.648 216.378,180.648C219.547,180.648 222.154,183.255 222.154,186.424C222.154,186.475 222.153,186.525 222.152,186.576C222.152,190.416 225.312,193.576 229.152,193.576C232.992,193.576 236.152,190.416 236.152,186.576C236.139,175.732 227.22,166.813 216.376,166.8Z" style="fill:white;fill-rule:nonzero;"/>
                </g>
                <g transform="matrix(1.23501,0,0,1.23501,759.551,966.154)">
                    <path d="M356.352,361.072C394.896,334.116 417,293.872 417,250.672L417,222.856C416.998,219.017 413.839,215.858 410,215.856L402.856,215.856C402.912,214.936 403.036,214.024 403.036,213.1C403.01,188.685 382.927,168.602 358.512,168.576C357.139,168.576 355.76,168.643 354.376,168.776C349.754,148.64 331.683,134.247 311.024,134.247C306.44,134.247 301.883,134.956 297.516,136.348C290.911,119.221 274.356,107.862 256,107.862C237.644,107.862 221.089,119.221 214.484,136.348C210.117,134.956 205.56,134.247 200.976,134.247C180.317,134.247 162.246,148.64 157.624,168.776C156.24,168.643 154.861,168.576 153.488,168.576C129.074,168.604 108.994,188.686 108.968,213.1C108.968,214.024 109.092,214.936 109.148,215.856L102,215.856C98.161,215.858 95.002,219.017 95,222.856L95,250.688C95,293.888 117.104,334.116 155.648,361.088C165.797,367.687 172.75,378.225 174.824,390.152L102,390.152C98.16,390.152 95,393.312 95,397.152C95,400.992 98.16,404.152 102,404.152L410,404.152C413.84,404.152 417,400.992 417,397.152C417,393.312 413.84,390.152 410,390.152L337.176,390.152C339.245,378.219 346.199,367.674 356.352,361.072ZM122.968,213.1C122.968,213.065 122.968,213.03 122.968,212.995C122.968,196.307 136.7,182.575 153.388,182.575C156.188,182.575 158.974,182.962 161.668,183.724C162.279,183.894 162.91,183.98 163.544,183.98C167.255,183.98 170.354,181.03 170.536,177.324C171.29,161.156 184.797,148.264 200.983,148.264C206.126,148.264 211.187,149.566 215.692,152.048C216.728,152.62 217.892,152.92 219.076,152.92C222.465,152.92 225.391,150.459 225.972,147.12C228.513,132.592 241.252,121.889 256,121.889C270.748,121.889 283.487,132.592 286.028,147.12C286.609,150.459 289.535,152.92 292.924,152.92C294.108,152.92 295.272,152.62 296.308,152.048C300.813,149.566 305.874,148.264 311.017,148.264C327.203,148.264 340.71,161.156 341.464,177.324C341.646,181.03 344.745,183.98 348.456,183.98C349.09,183.98 349.721,183.894 350.332,183.724C353.026,182.962 355.812,182.576 358.612,182.576C375.302,182.576 389.036,196.309 389.036,213C389.036,213.033 389.036,213.067 389.036,213.1C389.036,214.024 388.936,214.94 388.856,215.856L123.144,215.856C123.064,214.94 122.968,214.024 122.968,213.1ZM109,229.856L403,229.856L403,243.688L109,243.688L109,229.856ZM323.14,390.136L188.86,390.136C186.817,373.59 177.594,358.754 163.66,349.6C131.028,326.776 111.476,293.6 109.216,257.688L402.768,257.688C400.516,293.6 380.964,326.776 348.332,349.6C334.401,358.756 325.181,373.592 323.14,390.136Z" style="fill:white;fill-rule:nonzero;"/>
                </g>
            </g>
            <g transform="matrix(1.13242,0,0,1.13242,-185.168,-181.544)">
                <g transform="matrix(1,0,0,1,9.97497,-67.6873)">
                    <g transform="matrix(0.675,0,0,0.652174,288.772,587.971)">
                        <rect x="780.795" y="1564.12" width="222.656" height="128.027" style="fill:none;stroke:white;stroke-width:11.09px;"/>
                    </g>
                    <g transform="matrix(1,0,0,1,-2.69034,0)">
                        <path d="M854.458,1732.73L932.833,1732.73" style="fill:none;stroke:white;stroke-width:7.36px;"/>
                    </g>
                    <g transform="matrix(1,0,0,0.5968,-0.90909,698.638)">
                        <path d="M891.864,1668.61L891.864,1732.73" style="fill:none;stroke:white;stroke-width:8.94px;"/>
                    </g>
                </g>
                <g transform="matrix(1,0,0,1,240.824,-67.6873)">
                    <g transform="matrix(0.675,0,0,0.652174,288.772,587.971)">
                        <rect x="780.795" y="1564.12" width="222.656" height="128.027" style="fill:none;stroke:white;stroke-width:11.09px;"/>
                    </g>
                    <g transform="matrix(1,0,0,1,-2.69034,0)">
                        <path d="M854.458,1732.73L932.833,1732.73" style="fill:none;stroke:white;stroke-width:7.36px;"/>
                    </g>
                    <g transform="matrix(1,0,0,0.5968,-0.90909,698.638)">
                        <path d="M891.864,1668.61L891.864,1732.73" style="fill:none;stroke:white;stroke-width:8.94px;"/>
                    </g>
                </g>
                <g transform="matrix(1,0,0,1,474.524,-67.6873)">
                    <g transform="matrix(0.675,0,0,0.652174,288.772,587.971)">
                        <rect x="780.795" y="1564.12" width="222.656" height="128.027" style="fill:none;stroke:white;stroke-width:11.09px;"/>
                    </g>
                    <g transform="matrix(1,0,0,1,-2.69034,0)">
                        <path d="M854.458,1732.73L932.833,1732.73" style="fill:none;stroke:white;stroke-width:7.36px;"/>
                    </g>
                    <g transform="matrix(1,0,0,0.5968,-0.90909,698.638)">
                        <path d="M891.864,1668.61L891.864,1732.73" style="fill:none;stroke:white;stroke-width:8.94px;"/>
                    </g>
                </g>
            </g>
            <g transform="matrix(1.13242,0,0,1.13242,-182.386,-181.544)">
                <path d="M898.473,1538.4L898.473,1458.6L1363.02,1458.6L1363.02,1535.55" style="fill:none;stroke:white;stroke-width:7.36px;"/>
                <g transform="matrix(1,0,0,2.03571,-8.54997,-1593.34)">
                    <path d="M1139.3,1458.6L1139.3,1538.4" style="fill:none;stroke:white;stroke-width:4.59px;"/>
                </g>
            </g>
        </g>
    </g>
</svg>
